<?xml version="1.0" encoding="UTF-8" standalone="no"?>
<!-- Created with Inkscape (http://www.inkscape.org/) -->

<svg
   width="109.57965mm"
   height="29.566946mm"
   viewBox="0 0 109.57965 29.566946"
   version="1.1"
   id="svg1"
   inkscape:version="1.4.4 (dcaf3e7, 2026-05-05)"
   sodipodi:docname="drawing.svg"
   xmlns:inkscape="http://www.inkscape.org/namespaces/inkscape"
   xmlns:sodipodi="http://sodipodi.sourceforge.net/DTD/sodipodi-0.dtd"
   xmlns="http://www.w3.org/2000/svg"
   xmlns:svg="http://www.w3.org/2000/svg">
  <sodipodi:namedview
     id="namedview1"
     pagecolor="#ffffff"
     bordercolor="#000000"
     borderopacity="0.25"
     inkscape:showpageshadow="2"
     inkscape:pageopacity="0.0"
     inkscape:pagecheckerboard="0"
     inkscape:deskcolor="#d1d1d1"
     inkscape:document-units="mm"
     showguides="true"
     showgrid="false"
     inkscape:zoom="1.4142136"
     inkscape:cx="105.71246"
     inkscape:cy="579.474"
     inkscape:window-width="1920"
     inkscape:window-height="1046"
     inkscape:window-x="-11"
     inkscape:window-y="-11"
     inkscape:window-maximized="1"
     inkscape:current-layer="layer1">
    <inkscape:grid
       id="grid61"
       units="mm"
       originx="-231.69392"
       originy="-155.24712"
       spacingx="0.99999998"
       spacingy="1"
       empcolor="#0099e5"
       empopacity="0.30196078"
       color="#0099e5"
       opacity="0.14901961"
       empspacing="5"
       enabled="true"
       visible="false" />
    <inkscape:page
       x="0"
       y="2.4881299e-38"
       width="109.57965"
       height="29.566946"
       id="page2"
       margin="0"
       bleed="0" />
  </sodipodi:namedview>
  <defs
     id="defs1">
    <inkscape:path-effect
       effect="fillet_chamfer"
       id="path-effect9"
       is_visible="true"
       lpeversion="1"
       nodesatellites_param="F,0,0,1,0,0,0,1 @ F,0,0,1,0,0,0,1 @ F,0,0,1,0,1.5398587,0,1 @ F,0,0,1,0,0,0,1 @ F,0,0,1,0,1.7795918,0,1 @ F,0,0,1,0,0,0,1 @ F,0,0,1,0,0,0,1 @ F,0,0,1,0,0,0,1 @ F,0,0,1,0,0,0,1 @ F,0,0,1,0,0,0,1 @ F,0,0,1,0,0,0,1 @ F,0,0,1,0,0,0,1 @ F,0,0,1,0,0,0,1 | F,0,0,1,0,0,0,1 @ F,0,0,1,0,0,0,1 @ F,0,0,1,0,0,0,1 @ F,0,0,1,0,0,0,1 @ F,0,0,1,0,0,0,1 @ F,0,0,1,0,0,0,1 @ F,0,0,1,0,0,0,1 @ F,0,0,1,0,0,0,1 @ F,0,0,1,0,0,0,1"
       radius="0"
       unit="px"
       method="auto"
       mode="F"
       chamfer_steps="1"
       flexible="false"
       use_knot_distance="true"
       apply_no_radius="true"
       apply_with_radius="true"
       only_selected="false"
       hide_knots="false" />
    <inkscape:path-effect
       effect="fillet_chamfer"
       id="path-effect7"
       is_visible="true"
       lpeversion="1"
       nodesatellites_param="F,0,0,1,0,4.9907134,0,1 @ F,0,0,1,0,0,0,1 @ F,0,0,1,0,6.3501431,0,1 @ F,0,0,1,0,0,0,1"
       radius="0"
       unit="px"
       method="auto"
       mode="F"
       chamfer_steps="1"
       flexible="false"
       use_knot_distance="true"
       apply_no_radius="true"
       apply_with_radius="true"
       only_selected="false"
       hide_knots="false" />
    <inkscape:path-effect
       effect="fillet_chamfer"
       id="path-effect6"
       is_visible="true"
       lpeversion="1"
       nodesatellites_param="F,0,0,1,0,4.7263101,0,1 @ F,0,0,1,0,0,0,1 @ F,0,0,1,0,4.9912803,0,1 @ F,0,0,1,0,0,0,1"
       radius="0"
       unit="px"
       method="auto"
       mode="F"
       chamfer_steps="1"
       flexible="false"
       use_knot_distance="true"
       apply_no_radius="true"
       apply_with_radius="true"
       only_selected="false"
       hide_knots="false" />
    <inkscape:path-effect
       effect="fillet_chamfer"
       id="path-effect5"
       is_visible="true"
       lpeversion="1"
       nodesatellites_param="F,0,0,1,0,0,0,1 @ F,0,0,1,0,2.0807045,0,1 @ F,0,0,1,0,0,0,1 @ F,0,0,1,0,0,0,1 @ F,0,0,1,0,0,0,1 @ F,0,0,1,0,0,0,1 @ F,0,0,1,0,0,0,1 @ F,0,0,1,0,0,0,1 @ F,0,0,1,0,0,0,1 @ F,0,0,1,0,0,0,1 @ F,0,0,1,0,2.2354444,0,1 @ F,0,0,1,0,0,0,1 @ F,0,0,1,0,0,0,1 @ F,0,0,1,0,0,0,1 | F,0,0,1,0,0,0,1 @ F,0,0,1,0,0,0,1 @ F,0,0,1,0,0,0,1 @ F,0,0,1,0,0,0,1 @ F,0,0,1,0,0,0,1 @ F,0,0,1,0,0,0,1 @ F,0,0,1,0,0,0,1 @ F,0,0,1,0,0,0,1"
       radius="0"
       unit="px"
       method="auto"
       mode="F"
       chamfer_steps="1"
       flexible="false"
       use_knot_distance="true"
       apply_no_radius="true"
       apply_with_radius="true"
       only_selected="false"
       hide_knots="false" />
    <inkscape:path-effect
       effect="fillet_chamfer"
       id="path-effect62"
       is_visible="true"
       lpeversion="1"
       nodesatellites_param="F,0,0,1,0,0,0,1 @ F,0,0,1,0,0,0,1 @ F,0,0,1,0,0,0,1 @ F,0,0,1,0,0,0,1 @ F,0,0,1,0,1.7673274,0,1 @ F,0,0,1,0,0,0,1 @ F,0,0,1,0,0,0,1 @ F,0,0,1,0,0,0,1 @ F,0,0,1,0,0,0,1 @ F,0,0,1,0,0.77190799,0,1 @ F,0,0,1,0,1.2294824,0,1 @ F,0,0,1,0,0,0,1 @ F,0,0,1,0,0,0,1 @ F,0,0,1,0,0,0,1 | F,0,0,1,0,0,0,1 @ F,0,0,1,0,0,0,1 @ F,0,0,1,0,1.3398176,0,1 @ F,0,0,1,0,0.87788034,0,1 @ F,0,0,1,0,0,0,1"
       radius="0"
       unit="px"
       method="auto"
       mode="F"
       chamfer_steps="1"
       flexible="false"
       use_knot_distance="true"
       apply_no_radius="true"
       apply_with_radius="true"
       only_selected="false"
       hide_knots="false" />
    <inkscape:path-effect
       effect="fillet_chamfer"
       id="path-effect62-2"
       is_visible="true"
       lpeversion="1"
       nodesatellites_param="F,0,0,1,0,0,0,1 @ F,0,0,1,0,0,0,1 @ F,0,0,1,0,0,0,1 @ F,0,0,1,0,0,0,1 @ F,0,0,1,0,1.7673274,0,1 @ F,0,0,1,0,0,0,1 @ F,0,0,1,0,0,0,1 @ F,0,0,1,0,0,0,1 @ F,0,0,1,0,0,0,1 @ F,0,0,1,0,0.77190799,0,1 @ F,0,0,1,0,1.2294824,0,1 @ F,0,0,1,0,0,0,1 @ F,0,0,1,0,0,0,1 @ F,0,0,1,0,0,0,1 | F,0,0,1,0,0,0,1 @ F,0,0,1,0,0,0,1 @ F,0,0,1,0,1.3398176,0,1 @ F,0,0,1,0,0.87788034,0,1 @ F,0,0,1,0,0,0,1"
       radius="0"
       unit="px"
       method="auto"
       mode="F"
       chamfer_steps="1"
       flexible="false"
       use_knot_distance="true"
       apply_no_radius="true"
       apply_with_radius="true"
       only_selected="false"
       hide_knots="false" />
  </defs>
  <g
     inkscape:label="Layer 1"
     inkscape:groupmode="layer"
     id="layer1"
     transform="translate(-231.69392,-155.24711)">
    <g
       id="g13"
       transform="translate(212.98179,130.37121)">
      <g
         id="g17"
         transform="translate(4.6662019,-65.456168)"
         inkscape:export-filename="kleelab.svg"
         inkscape:export-xdpi="96"
         inkscape:export-ydpi="96">
        <g
           id="g55"
           transform="matrix(0.46155188,0,0,0.3827848,-12.43181,74.737977)">
          <path
             id="rect52-7"
             style="fill:#000000;stroke-width:0.300723"
             d="m 102.87535,-40.259886 c -0.73611,0.876315 -1.13941,1.991228 -1.12602,3.146347 l 0.45646,39.1027848 a 13.189504,10.124598 45.5651 0 1 12.41522,4.5180196 13.189504,10.124598 45.5651 0 1 4.43155,10.8967146 l 36.40601,0.384636 c 2.77918,0.02937 5.03431,-2.241119 4.98475,-5.020016 l -0.0383,-2.110726 c -0.0538,-3.0115379 -2.49299,-5.4337741 -5.50484,-5.4656448 L 120.93629,4.8329546 a 5.6933227,5.6933227 13.282526 0 1 -5.63403,-5.67707692 L 115.20734,-34.39431 c -0.004,-1.38236 0.0338,-3.704954 -0.63481,-4.897842 -0.67441,-1.203334 -1.83907,-2.098059 -3.22999,-2.407541 -0.47139,-0.104884 -1.25884,-0.130067 -1.74186,-0.150652 l -2.84059,-0.120481 c -1.15432,-0.0491 -2.28222,0.319262 -3.18093,1.028129 -0.21295,0.167969 -0.52936,0.475134 -0.70381,0.682811 z"
             transform="matrix(0.74334499,0.66890823,-0.72429781,0.68948726,0,0)" />
        </g>
        <path
           style="font-weight:bold;font-size:16.9333px;line-height:0;font-family:'MS UI Gothic';-inkscape-font-specification:'MS UI Gothic Bold';stroke-width:0.57488"
           d="m 51.240925,111.41016 c 0,-2.49701 0.843747,-4.53161 2.53124,-6.10381 1.389701,-1.29475 3.176458,-1.94213 5.360272,-1.94213 2.084551,0 3.719951,1.03719 5.208915,2.42443 1.056561,0.98437 1.798969,2.17108 2.094194,3.86208 0.167659,0.96033 -0.649545,1.75943 -1.625613,1.75943 l -10.293287,0 c 0,1.94213 0.496322,3.3756 1.488965,4.30043 0.893379,0.83233 2.034919,1.2485 3.424618,1.2485 1.389701,0 2.382344,-0.27744 2.977929,-0.83233 0.474983,-0.44253 0.787622,-0.92827 0.937918,-1.45723 0.116147,-0.40877 0.449952,-0.76233 0.876265,-0.76233 l 1.274334,0 c 0.679024,0 1.1114,0.53996 0.882188,1.17876 -0.390569,1.0885 -0.920023,1.94409 -1.58836,2.56676 -1.290436,1.20226 -3.077194,1.80339 -5.360274,1.80339 -2.382342,0 -4.317996,-0.69361 -5.806961,-2.08083 -1.588229,-1.47972 -2.382343,-3.46809 -2.382343,-5.96512 z m 7.742615,-5.68764 c -1.191171,0 -2.183814,0.36992 -2.977929,1.10977 -0.356898,0.33251 -0.648326,0.70162 -0.874285,1.10733 -0.358715,0.64407 0.134074,1.25097 0.874035,1.25097 h 6.2694 c 0.48484,0 0.891116,-0.40273 0.753963,-0.86601 -0.17352,-0.58611 -0.529271,-1.12978 -1.067255,-1.63099 -0.694851,-0.64738 -1.687494,-0.97107 -2.977929,-0.97107 z"
           id="path57"
           inkscape:path-effect="#path-effect62"
           inkscape:original-d="m 51.240925,111.41016 c 0,-2.49701 0.843747,-4.53161 2.53124,-6.10381 1.389701,-1.29475 3.176458,-1.94213 5.360272,-1.94213 2.084551,0 3.719951,1.03719 5.208915,2.42443 1.389701,1.29475 2.235908,2.93954 2.235908,5.62151 H 54.516646 c 0,1.94213 0.496322,3.3756 1.488965,4.30043 0.893379,0.83233 2.034919,1.2485 3.424618,1.2485 1.389701,0 2.382344,-0.27744 2.977929,-0.83233 0.69485,-0.64737 1.042275,-1.38723 1.042275,-2.21956 h 3.275724 c -0.397058,1.66467 -1.042276,2.91318 -1.935654,3.74552 -1.290436,1.20226 -3.077194,1.80339 -5.360274,1.80339 -2.382342,0 -4.317996,-0.69361 -5.806961,-2.08083 -1.588229,-1.47972 -2.382343,-3.46809 -2.382343,-5.96512 z m 7.742615,-5.68764 c -1.191171,0 -2.183814,0.36992 -2.977929,1.10977 -0.694851,0.64737 -1.14154,1.43347 -1.340068,2.3583 h 8.487098 c 0,-0.92483 -0.397057,-1.75716 -1.191172,-2.497 -0.694851,-0.64738 -1.687494,-0.97107 -2.977929,-0.97107 z"
           transform="translate(-2.9765625,0.13229167)" />
        <path
           style="font-weight:bold;font-size:16.9333px;line-height:0;font-family:'MS UI Gothic';-inkscape-font-specification:'MS UI Gothic Bold';stroke-width:0.647409"
           d="m 47.864245,90.317899 1.265257,-1.5e-4 -0.0076,23.066931 a 6.3842284,6.3842284 134.86553 0 1 -6.352157,6.38204 l 0,0 0.0862,-24.457549 a 5.0089271,5.0089271 135.09758 0 1 5.008303,-4.991272 z"
           id="text55"
           sodipodi:nodetypes="ccccc"
           transform="translate(-1.6536458,0.13229167)"
           inkscape:path-effect="#path-effect7"
           inkscape:original-d="m 42.873532,90.318489 6.25597,-7.4e-4 -0.0097,29.417071 -6.350063,0.0319 z" />
        <path
           d="m 93.65522,131.02405 h -1.586323 a 2.0807045,2.0807045 45 0 1 -2.080705,-2.0807 v -0.52697 h -0.06519 c -1.151719,1.99921 -2.841268,2.99882 -5.068648,2.99882 -1.640655,0 -2.928189,-0.44548 -3.862602,-1.33643 -0.923548,-0.89095 -1.385322,-2.06983 -1.385322,-3.53664 0,-3.15093 1.8145,-4.98717 5.443499,-5.5087 l 4.954562,-0.70081 c 0,-2.37949 -1.129988,-3.56924 -3.389963,-3.56924 -1.25241,0 -2.427227,0.27158 -3.524451,0.81473 -1.103598,0.54631 -1.853857,0.23797 -1.853857,-0.99663 v -1.07303 c 1.760173,-1.04307 3.791978,-1.5646 6.095415,-1.5646 4.215724,0 6.323586,2.07527 6.323586,6.2258 z m -3.65073,-8.19785 -3.504049,0.48894 c -1.086527,0.14125 -1.906854,0.40745 -2.460983,0.7986 -0.543263,0.38028 -0.814895,1.05393 -0.814895,2.02094 0,0.70624 0.249901,1.28753 0.749704,1.74387 0.510667,0.44548 1.189746,0.66822 2.037237,0.66822 1.151719,0 2.10243,-0.40202 2.852133,-1.20605 0.760569,-0.81489 1.140853,-1.83623 1.140853,-3.064 z"
           id="text57"
           style="font-weight:bold;font-size:33.3781px;line-height:0;font-family:'Yu Gothic UI';-inkscape-font-specification:'Yu Gothic UI Bold';stroke-width:0.521534"
           transform="scale(1.1005606,0.90862784)"
           aria-label="a"
           inkscape:path-effect="#path-effect5"
           inkscape:original-d="m 93.65522,131.02405 h -3.667028 v -2.60767 h -0.06519 q -1.727578,2.99882 -5.068648,2.99882 -2.460983,0 -3.862602,-1.33643 -1.385322,-1.33643 -1.385322,-3.53664 0,-4.7264 5.443499,-5.5087 l 4.954562,-0.70081 q 0,-3.56924 -3.389963,-3.56924 -2.982516,0 -5.378308,2.05354 v -3.30847 q 2.64026,-1.5646 6.095415,-1.5646 6.323586,0 6.323586,6.2258 z m -3.65073,-8.19785 -3.504049,0.48894 q -1.62979,0.21187 -2.460983,0.7986 -0.814895,0.57042 -0.814895,2.02094 0,1.05936 0.749704,1.74387 0.766001,0.66822 2.037237,0.66822 1.727578,0 2.852133,-1.20605 1.140853,-1.22234 1.140853,-3.064 z" />
        <path
           style="font-weight:bold;font-size:16.9333px;line-height:0;font-family:'MS UI Gothic';-inkscape-font-specification:'MS UI Gothic Bold';stroke-width:0.647409"
           d="m 47.599842,90.31793 1.52966,-1.81e-4 -0.0081,24.425791 a 5.0180717,5.0180717 134.86553 0 1 -4.992863,5.01635 l -1.358846,0.007 0.08713,-24.72195 a 4.7435588,4.7435588 135.09758 0 1 4.742968,-4.72684 z"
           id="text55-8"
           sodipodi:nodetypes="ccccc"
           transform="translate(37.603739,0.01432273)"
           inkscape:path-effect="#path-effect6"
           inkscape:original-d="m 42.873532,90.318489 6.25597,-7.4e-4 -0.0097,29.417071 -6.350063,0.0319 z" />
        <path
           style="font-weight:bold;font-size:16.9333px;line-height:0;font-family:'MS UI Gothic';-inkscape-font-specification:'MS UI Gothic Bold';stroke-width:0.57488"
           d="m 51.240925,111.41016 c 0,-2.49701 0.843747,-4.53161 2.53124,-6.10381 1.389701,-1.29475 3.176458,-1.94213 5.360272,-1.94213 2.084551,0 3.871308,0.69362 5.360272,2.08085 1.065811,0.99299 1.722918,2.39396 1.97132,4.2029 0.132674,0.96617 -0.678028,1.76219 -1.654096,1.76219 l -10.293287,0 c 0,1.94213 0.496322,3.3756 1.488965,4.30043 0.893379,0.83233 2.034919,1.2485 3.424618,1.2485 1.389701,0 2.382344,-0.27744 2.977929,-0.83233 0.474983,-0.44253 0.787622,-0.92827 0.937918,-1.45723 0.116147,-0.40877 0.449952,-0.76233 0.876265,-0.76233 l 1.274334,0 c 0.679024,0 1.111401,0.53996 0.882188,1.17876 -0.390569,1.0885 -0.920022,1.94408 -1.58836,2.56676 -1.290436,1.20226 -3.077194,1.80339 -5.360274,1.80339 -2.382342,0 -4.317996,-0.69361 -5.806961,-2.08083 -1.588229,-1.47972 -2.382343,-3.46809 -2.382343,-5.96512 z m 7.742615,-5.68764 c -1.191171,0 -2.183814,0.36992 -2.977929,1.10977 -0.356897,0.33251 -0.648325,0.70162 -0.874284,1.10733 -0.358715,0.64407 0.134073,1.25097 0.874034,1.25097 h 6.2694 c 0.48484,0 0.891116,-0.40273 0.753962,-0.86601 -0.173519,-0.58611 -0.529271,-1.12978 -1.067254,-1.63099 -0.694851,-0.64738 -1.687494,-0.97107 -2.977929,-0.97107 z"
           id="path57-9"
           inkscape:path-effect="#path-effect62-2"
           inkscape:original-d="m 51.240925,111.41016 q 0,-3.74551 2.53124,-6.10381 2.084551,-1.94213 5.360272,-1.94213 3.126826,0 5.360272,2.08085 2.084551,1.94213 2.084551,5.96509 H 54.516646 q 0,2.91319 1.488965,4.30043 1.340069,1.2485 3.424618,1.2485 2.084551,0 2.977929,-0.83233 1.042275,-0.97106 1.042275,-2.21956 h 3.275724 q -0.595587,2.49701 -1.935654,3.74552 -1.935654,1.80339 -5.360274,1.80339 -3.573513,0 -5.806961,-2.08083 -2.382343,-2.21958 -2.382343,-5.96512 z m 7.742615,-5.68764 q -1.786757,0 -2.977929,1.10977 -1.042276,0.97106 -1.340068,2.3583 h 8.487098 q 0,-1.38724 -1.191172,-2.497 -1.042276,-0.97107 -2.977929,-0.97107 z"
           transform="translate(12.655949,0.15400913)" />
        <circle
           style="fill:#ffb34f;fill-opacity:1;stroke-width:0.102049"
           id="path1-8"
           cx="18.895947"
           cy="105.83315"
           r="4.8499999" />
        <path
           style="font-weight:bold;font-size:16.9333px;line-height:0;font-family:'Yu Gothic UI';-inkscape-font-specification:'Yu Gothic UI Bold';stroke-width:0.264583"
           d="m 111.40966,146.6001 h -0.0331 a 1.3907879,1.3907879 141.52665 0 1 -1.53986,1.22369 h -0.86295 v -10.75502 a 1.7795918,1.7795918 135 0 1 1.77959,-1.77959 h 0.62322 v 5.55624 h 0.0331 c 0.65594,-1.12448 1.61505,-1.68672 2.87733,-1.68672 1.06936,0 1.90445,0.38034 2.50527,1.14102 0.60634,0.75516 0.90951,1.76939 0.90951,3.0427 0,1.41662 -0.339,2.55212 -1.01699,3.4065 -0.67799,0.84887 -1.60403,1.27331 -2.77812,1.27331 -1.10243,0 -1.93477,-0.47404 -2.497,-1.42213 z m -0.0496,-3.36517 v 1.05007 c 0,0.61736 0.19568,1.14101 0.58704,1.57096 0.39687,0.42995 0.89848,0.64492 1.50481,0.64492 0.71107,0 1.26779,-0.27561 1.67018,-0.82682 0.4079,-0.55673 0.61185,-1.33118 0.61185,-2.32337 0,-0.83233 -0.19017,-1.48277 -0.57051,-1.9513 -0.37482,-0.47405 -0.88469,-0.71107 -1.52961,-0.71107 -0.68351,0 -1.23472,0.24254 -1.65365,0.72761 -0.41341,0.48507 -0.62011,1.0914 -0.62011,1.819 z"
           id="path31-2"
           sodipodi:nodetypes="ccccccccscscscsscscscscs"
           transform="matrix(2.1234267,0,0,2.2783044,-126.30548,-217.79378)"
           inkscape:path-effect="#path-effect9"
           inkscape:original-d="m 111.40966,146.6001 h -0.0331 v 1.22369 h -2.40281 v -12.53461 h 2.40281 v 5.55624 h 0.0331 c 0.65594,-1.12448 1.61505,-1.68672 2.87733,-1.68672 1.06936,0 1.90445,0.38034 2.50527,1.14102 0.60634,0.75516 0.90951,1.76939 0.90951,3.0427 0,1.41662 -0.339,2.55212 -1.01699,3.4065 -0.67799,0.84887 -1.60403,1.27331 -2.77812,1.27331 -1.10243,0 -1.93477,-0.47404 -2.497,-1.42213 z m -0.0496,-3.36517 v 1.05007 c 0,0.61736 0.19568,1.14101 0.58704,1.57096 0.39687,0.42995 0.89848,0.64492 1.50481,0.64492 0.71107,0 1.26779,-0.27561 1.67018,-0.82682 0.4079,-0.55673 0.61185,-1.33118 0.61185,-2.32337 0,-0.83233 -0.19017,-1.48277 -0.57051,-1.9513 -0.37482,-0.47405 -0.88469,-0.71107 -1.52961,-0.71107 -0.68351,0 -1.23472,0.24254 -1.65365,0.72761 -0.41341,0.48507 -0.62011,1.0914 -0.62011,1.819 z" />
        <circle
           style="opacity:0;fill:#ffb34f;fill-opacity:1;stroke-width:0.102049"
           id="circle13"
           cx="18.895947"
           cy="105.83315"
           r="4.8499999" />
      </g>
    </g>
  </g>
</svg>
